<svg width="22" height="22" viewBox="0 0 22 22" fill="none" xmlns="http://www.w3.org/2000/svg">
<path d="M8.27171 5.84784L10.9986 1.60547L12.5893 4.74593L15.9979 8.27206L20.9973 11.3023L17.7719 12.5902L12.3621 17.7485L10.9986 20.9992L9.74884 18.575L7.24916 14.9386L4.63586 13.1205L1 11.3023L1.68172 10.6963L5.31758 8.93321L8.27171 5.84784Z" fill="#1C1C24"/>
<path d="M10.9986 1C10.3737 3.32321 7.49909 8.60322 1 11.1376" stroke="#1C1C24" stroke-linecap="round"/>
<path d="M10.9975 1C11.6224 3.32321 14.497 8.60322 20.9961 11.1376" stroke="#1C1C24" stroke-linecap="round"/>
<path d="M10.9986 20.998C10.3737 18.7759 7.49909 13.7254 1 11.3012" stroke="#1C1C24" stroke-linecap="round"/>
<path d="M11.0014 21C11.6263 18.7778 14.5009 13.7274 21 11.3031" stroke="#1C1C24" stroke-linecap="round"/>
</svg>
